<?xml version="1.0" encoding="utf-8"?>
<!-- Generator: Adobe Illustrator 26.0.3, SVG Export Plug-In . SVG Version: 6.00 Build 0)  -->
<svg version="1.1" id="Layer_1" xmlns="http://www.w3.org/2000/svg" xmlns:xlink="http://www.w3.org/1999/xlink" x="0px" y="0px"
	 viewBox="0 0 226 226" style="enable-background:new 0 0 226 226;" xml:space="preserve">
<style type="text/css">
	.st0{fill:#DDD0D0;}
</style>
<path class="st0" d="M208.6,193.1c-0.1,16.1-13.1,30.5-29.1,32.8c-0.7,0.1-1.4,0.3-2.1,0.5H31c-0.4-0.1-0.8-0.4-1.2-0.4
	c-12.6-2-21.7-8.9-27-20.4c-1.5-3.3-2.1-6.9-3.1-10.4V48.8c1.2-4,1.9-8.2,3.8-11.9c6.2-12.2,16.3-19.1,30.1-19.3
	c25.7-0.4,51.4-0.1,77.1-0.1c3.9,0,6.2,2.4,6.3,6.4c0,4.8,0,9.5,0,14.3c0,4.8-2.3,7.1-7.2,7.1H36.5c-6.6,0-9,2.4-9,9v135.3
	c0,6.5,2.5,9,9.1,9h135.3c6.6,0,9-2.5,9-9.1c0-23,0-46,0-69c0-5.5,2.1-7.6,7.5-7.6c4.6,0,9.1-0.1,13.7,0c4.2,0.1,6.6,2.3,6.6,6.3
	C208.7,143.9,208.8,168.5,208.6,193.1z"/>
<path class="st0" d="M225.3,7.4c0,20.6,0,41.3,0,61.9c0,4.3-2.4,6.7-6.7,6.7c-4.8,0-9.7,0-14.5,0c-4.2,0-6.5-2.4-6.6-6.6
	c0-6.2,0-12.3,0-18.5c0-0.7-0.1-1.4-0.1-2.1c-0.3-0.2-0.6-0.5-0.9-0.8c-0.4,0.7-0.6,1.6-1.1,2.2c-26.3,26.4-52.7,52.7-79,79
	c-1.9,1.9-4,3.3-6.8,2.3c-1.1-0.4-2.2-1.2-3.1-2c-3.3-3.2-6.5-6.4-9.7-9.6c-3.7-3.7-3.7-6.7,0-10.4c26.3-26.3,52.6-52.6,78.9-78.8
	c0.6-0.5,1.1-1.1,2.1-2.1c-7.3,0-14,0-20.7,0c-4.9,0-7.1-2.2-7.1-7.1c0-4.6,0-9.3,0-13.9c0-4.4,2.4-6.8,6.9-6.8
	c20.6,0,41.1,0,61.7,0C222.9,0.8,225.3,3.1,225.3,7.4z"/>
</svg>
